<mxfile host="app.diagrams.net" modified="2024-02-14T10:58:42.313Z" agent="Mozilla/5.0 (Windows NT 10.0; Win64; x64) AppleWebKit/537.36 (KHTML, like Gecko) Chrome/121.0.0.0 Safari/537.36" etag="xb8axxCpjYxAS9US7Muq" version="23.1.4" type="device">
  <diagram name="Page-1" id="bKzfOB6UQ_49fi_lkIJv">
    <mxGraphModel dx="2160" dy="1571" grid="1" gridSize="10" guides="1" tooltips="1" connect="1" arrows="1" fold="1" page="1" pageScale="1" pageWidth="1100" pageHeight="850" math="0" shadow="0">
      <root>
        <mxCell id="0" />
        <mxCell id="1" parent="0" />
        <mxCell id="iu2bACCIF6i8hBkBAPVo-22" value="" style="rounded=0;whiteSpace=wrap;html=1;labelBackgroundColor=#66FF66;fillColor=none;" parent="1" vertex="1">
          <mxGeometry x="229.14999999999998" y="969.9999999999999" width="797" height="1020" as="geometry" />
        </mxCell>
        <mxCell id="iu2bACCIF6i8hBkBAPVo-20" value="" style="rounded=0;whiteSpace=wrap;html=1;labelBackgroundColor=#66FF66;fillColor=none;" parent="1" vertex="1">
          <mxGeometry x="185" y="30" width="797" height="810" as="geometry" />
        </mxCell>
        <mxCell id="pPHQagGGR3IevSegPXLk-1" value="&lt;font style=&quot;font-size: 18px;&quot;&gt;&lt;b&gt;Admin&lt;/b&gt;&lt;/font&gt;" style="shape=umlActor;verticalLabelPosition=bottom;verticalAlign=top;html=1;outlineConnect=0;" parent="1" vertex="1">
          <mxGeometry x="1037" y="440" width="40" height="80" as="geometry" />
        </mxCell>
        <mxCell id="pPHQagGGR3IevSegPXLk-2" value="&lt;b&gt;&lt;font style=&quot;font-size: 18px;&quot;&gt;Login&lt;/font&gt;&lt;/b&gt;" style="ellipse;whiteSpace=wrap;html=1;" parent="1" vertex="1">
          <mxGeometry x="340" y="360" width="120" height="80" as="geometry" />
        </mxCell>
        <mxCell id="pPHQagGGR3IevSegPXLk-3" value="Username" style="ellipse;whiteSpace=wrap;html=1;fontStyle=1" parent="1" vertex="1">
          <mxGeometry x="190" y="420" width="90" height="60" as="geometry" />
        </mxCell>
        <mxCell id="pPHQagGGR3IevSegPXLk-4" value="Password" style="ellipse;whiteSpace=wrap;html=1;fontStyle=1" parent="1" vertex="1">
          <mxGeometry x="280" y="470" width="90" height="60" as="geometry" />
        </mxCell>
        <mxCell id="pPHQagGGR3IevSegPXLk-5" value="" style="endArrow=none;html=1;rounded=0;entryX=0.079;entryY=0.772;entryDx=0;entryDy=0;exitX=1;exitY=0.5;exitDx=0;exitDy=0;entryPerimeter=0;" parent="1" source="pPHQagGGR3IevSegPXLk-3" target="pPHQagGGR3IevSegPXLk-2" edge="1">
          <mxGeometry width="50" height="50" relative="1" as="geometry">
            <mxPoint x="380" y="460" as="sourcePoint" />
            <mxPoint x="430" y="410" as="targetPoint" />
          </mxGeometry>
        </mxCell>
        <mxCell id="pPHQagGGR3IevSegPXLk-6" value="" style="endArrow=none;html=1;rounded=0;entryX=0.077;entryY=0.771;entryDx=0;entryDy=0;exitX=1;exitY=0.5;exitDx=0;exitDy=0;entryPerimeter=0;" parent="1" source="pPHQagGGR3IevSegPXLk-4" target="pPHQagGGR3IevSegPXLk-2" edge="1">
          <mxGeometry width="50" height="50" relative="1" as="geometry">
            <mxPoint x="355" y="460" as="sourcePoint" />
            <mxPoint x="410" y="450" as="targetPoint" />
          </mxGeometry>
        </mxCell>
        <mxCell id="pPHQagGGR3IevSegPXLk-7" value="&lt;b&gt;&lt;font style=&quot;font-size: 18px;&quot;&gt;Search&lt;/font&gt;&lt;/b&gt;" style="ellipse;whiteSpace=wrap;html=1;" parent="1" vertex="1">
          <mxGeometry x="600" y="180" width="120" height="80" as="geometry" />
        </mxCell>
        <mxCell id="pPHQagGGR3IevSegPXLk-9" value="" style="endArrow=open;endSize=12;dashed=1;html=1;rounded=0;fontSize=12;curved=1;entryX=0.983;entryY=0.509;entryDx=0;entryDy=0;entryPerimeter=0;exitX=0;exitY=0.5;exitDx=0;exitDy=0;" parent="1" source="pPHQagGGR3IevSegPXLk-10" target="pPHQagGGR3IevSegPXLk-7" edge="1">
          <mxGeometry x="-0.5268" y="50" width="160" relative="1" as="geometry">
            <mxPoint x="832" y="190" as="sourcePoint" />
            <mxPoint x="852" y="80" as="targetPoint" />
            <mxPoint as="offset" />
          </mxGeometry>
        </mxCell>
        <mxCell id="pPHQagGGR3IevSegPXLk-10" value="Email" style="ellipse;whiteSpace=wrap;html=1;fontStyle=1" parent="1" vertex="1">
          <mxGeometry x="850" y="190" width="90" height="60" as="geometry" />
        </mxCell>
        <mxCell id="pPHQagGGR3IevSegPXLk-11" value="" style="endArrow=open;endSize=12;dashed=1;html=1;rounded=0;fontSize=12;curved=1;exitX=0;exitY=0.5;exitDx=0;exitDy=0;" parent="1" source="pPHQagGGR3IevSegPXLk-12" target="pPHQagGGR3IevSegPXLk-7" edge="1">
          <mxGeometry x="-0.0394" y="-17" width="160" relative="1" as="geometry">
            <mxPoint x="812" y="120" as="sourcePoint" />
            <mxPoint x="682" y="122" as="targetPoint" />
            <mxPoint as="offset" />
          </mxGeometry>
        </mxCell>
        <mxCell id="pPHQagGGR3IevSegPXLk-12" value="phone_no" style="ellipse;whiteSpace=wrap;html=1;fontStyle=1" parent="1" vertex="1">
          <mxGeometry x="820" y="114.1" width="90" height="60" as="geometry" />
        </mxCell>
        <mxCell id="pPHQagGGR3IevSegPXLk-13" value="&lt;font style=&quot;font-size: 17px;&quot;&gt;&amp;lt;&amp;lt;extend&amp;gt;&amp;gt;&lt;/font&gt;" style="text;html=1;strokeColor=none;fillColor=none;align=center;verticalAlign=middle;whiteSpace=wrap;rounded=0;fontSize=17;rotation=-25;fontStyle=1" parent="1" vertex="1">
          <mxGeometry x="747.7" y="140" width="45.3" height="22.65" as="geometry" />
        </mxCell>
        <mxCell id="pPHQagGGR3IevSegPXLk-14" value="&lt;font style=&quot;font-size: 17px;&quot;&gt;&amp;lt;&amp;lt;extend&amp;gt;&amp;gt;&lt;/font&gt;" style="text;html=1;strokeColor=none;fillColor=none;align=center;verticalAlign=middle;whiteSpace=wrap;rounded=0;fontSize=17;rotation=0;fontStyle=1" parent="1" vertex="1">
          <mxGeometry x="774.7" y="198" width="45.3" height="22.65" as="geometry" />
        </mxCell>
        <mxCell id="pPHQagGGR3IevSegPXLk-15" value="&lt;span style=&quot;font-size: 18px;&quot;&gt;&lt;b&gt;Delete&lt;br&gt;Client&lt;br&gt;&lt;/b&gt;&lt;/span&gt;" style="ellipse;whiteSpace=wrap;html=1;" parent="1" vertex="1">
          <mxGeometry x="600" y="370" width="120" height="80" as="geometry" />
        </mxCell>
        <mxCell id="pPHQagGGR3IevSegPXLk-18" value="&lt;span style=&quot;font-size: 18px;&quot;&gt;&lt;b&gt;Show&lt;br&gt;Clients&lt;br&gt;&lt;/b&gt;&lt;/span&gt;" style="ellipse;whiteSpace=wrap;html=1;" parent="1" vertex="1">
          <mxGeometry x="600" y="270" width="120" height="80" as="geometry" />
        </mxCell>
        <mxCell id="pPHQagGGR3IevSegPXLk-19" value="&lt;span style=&quot;font-size: 18px;&quot;&gt;&lt;b&gt;Update&lt;br&gt;Client&lt;br&gt;&lt;/b&gt;&lt;/span&gt;" style="ellipse;whiteSpace=wrap;html=1;" parent="1" vertex="1">
          <mxGeometry x="600" y="470" width="120" height="80" as="geometry" />
        </mxCell>
        <mxCell id="pPHQagGGR3IevSegPXLk-20" value="&lt;span style=&quot;font-size: 18px;&quot;&gt;&lt;b&gt;Add&lt;br&gt;Client&lt;br&gt;&lt;/b&gt;&lt;/span&gt;" style="ellipse;whiteSpace=wrap;html=1;" parent="1" vertex="1">
          <mxGeometry x="600" y="580" width="120" height="80" as="geometry" />
        </mxCell>
        <mxCell id="pPHQagGGR3IevSegPXLk-21" value="Clientname" style="ellipse;whiteSpace=wrap;html=1;fontStyle=1" parent="1" vertex="1">
          <mxGeometry x="377" y="652" width="90" height="60" as="geometry" />
        </mxCell>
        <mxCell id="pPHQagGGR3IevSegPXLk-22" value="salonname" style="ellipse;whiteSpace=wrap;html=1;fontStyle=1" parent="1" vertex="1">
          <mxGeometry x="434" y="708" width="90" height="60" as="geometry" />
        </mxCell>
        <mxCell id="pPHQagGGR3IevSegPXLk-23" value="Email-id" style="ellipse;whiteSpace=wrap;html=1;fontStyle=1" parent="1" vertex="1">
          <mxGeometry x="521" y="741" width="90" height="60" as="geometry" />
        </mxCell>
        <mxCell id="pPHQagGGR3IevSegPXLk-24" value="Phone_no" style="ellipse;whiteSpace=wrap;html=1;fontStyle=1" parent="1" vertex="1">
          <mxGeometry x="616.13" y="741" width="90" height="60" as="geometry" />
        </mxCell>
        <mxCell id="pPHQagGGR3IevSegPXLk-25" value="Gst_no" style="ellipse;whiteSpace=wrap;html=1;fontStyle=1" parent="1" vertex="1">
          <mxGeometry x="703" y="715" width="90" height="60" as="geometry" />
        </mxCell>
        <mxCell id="pPHQagGGR3IevSegPXLk-26" value="Password" style="ellipse;whiteSpace=wrap;html=1;fontStyle=1" parent="1" vertex="1">
          <mxGeometry x="783" y="679" width="90" height="60" as="geometry" />
        </mxCell>
        <mxCell id="pPHQagGGR3IevSegPXLk-27" value="Address" style="ellipse;whiteSpace=wrap;html=1;fontStyle=1" parent="1" vertex="1">
          <mxGeometry x="856" y="636" width="90" height="60" as="geometry" />
        </mxCell>
        <mxCell id="pPHQagGGR3IevSegPXLk-29" value="" style="endArrow=none;html=1;rounded=0;fontSize=12;curved=1;startSize=8;endSize=8;entryX=0;entryY=0.5;entryDx=0;entryDy=0;exitX=0.993;exitY=0.444;exitDx=0;exitDy=0;exitPerimeter=0;" parent="1" source="pPHQagGGR3IevSegPXLk-21" target="pPHQagGGR3IevSegPXLk-20" edge="1">
          <mxGeometry width="50" height="50" relative="1" as="geometry">
            <mxPoint x="490" y="660" as="sourcePoint" />
            <mxPoint x="580" y="590" as="targetPoint" />
          </mxGeometry>
        </mxCell>
        <mxCell id="pPHQagGGR3IevSegPXLk-30" value="" style="endArrow=none;html=1;rounded=0;fontSize=12;curved=1;startSize=8;endSize=8;entryX=0.042;entryY=0.705;entryDx=0;entryDy=0;entryPerimeter=0;exitX=0.5;exitY=0;exitDx=0;exitDy=0;" parent="1" source="pPHQagGGR3IevSegPXLk-22" target="pPHQagGGR3IevSegPXLk-20" edge="1">
          <mxGeometry width="50" height="50" relative="1" as="geometry">
            <mxPoint x="460" y="690" as="sourcePoint" />
            <mxPoint x="510" y="640" as="targetPoint" />
          </mxGeometry>
        </mxCell>
        <mxCell id="pPHQagGGR3IevSegPXLk-31" value="" style="endArrow=none;html=1;rounded=0;fontSize=12;curved=1;startSize=8;endSize=8;entryX=0.154;entryY=0.866;entryDx=0;entryDy=0;entryPerimeter=0;exitX=0.5;exitY=0;exitDx=0;exitDy=0;" parent="1" source="pPHQagGGR3IevSegPXLk-23" target="pPHQagGGR3IevSegPXLk-20" edge="1">
          <mxGeometry width="50" height="50" relative="1" as="geometry">
            <mxPoint x="489" y="718" as="sourcePoint" />
            <mxPoint x="615" y="646" as="targetPoint" />
          </mxGeometry>
        </mxCell>
        <mxCell id="pPHQagGGR3IevSegPXLk-32" value="" style="endArrow=none;html=1;rounded=0;fontSize=12;curved=1;startSize=8;endSize=8;entryX=0.348;entryY=0.975;entryDx=0;entryDy=0;entryPerimeter=0;exitX=0.5;exitY=0;exitDx=0;exitDy=0;" parent="1" source="pPHQagGGR3IevSegPXLk-24" target="pPHQagGGR3IevSegPXLk-20" edge="1">
          <mxGeometry width="50" height="50" relative="1" as="geometry">
            <mxPoint x="510" y="710" as="sourcePoint" />
            <mxPoint x="560" y="660" as="targetPoint" />
          </mxGeometry>
        </mxCell>
        <mxCell id="pPHQagGGR3IevSegPXLk-33" value="" style="endArrow=none;html=1;rounded=0;fontSize=12;curved=1;startSize=8;endSize=8;entryX=0.5;entryY=1;entryDx=0;entryDy=0;exitX=0;exitY=0;exitDx=0;exitDy=0;" parent="1" source="pPHQagGGR3IevSegPXLk-25" target="pPHQagGGR3IevSegPXLk-20" edge="1">
          <mxGeometry width="50" height="50" relative="1" as="geometry">
            <mxPoint x="671" y="751" as="sourcePoint" />
            <mxPoint x="652" y="668" as="targetPoint" />
          </mxGeometry>
        </mxCell>
        <mxCell id="pPHQagGGR3IevSegPXLk-35" value="" style="endArrow=none;html=1;rounded=0;fontSize=12;curved=1;startSize=8;endSize=8;exitX=0.636;exitY=0.979;exitDx=0;exitDy=0;exitPerimeter=0;entryX=0.33;entryY=0.031;entryDx=0;entryDy=0;entryPerimeter=0;" parent="1" source="pPHQagGGR3IevSegPXLk-20" target="pPHQagGGR3IevSegPXLk-26" edge="1">
          <mxGeometry width="50" height="50" relative="1" as="geometry">
            <mxPoint x="678" y="660" as="sourcePoint" />
            <mxPoint x="820" y="650" as="targetPoint" />
          </mxGeometry>
        </mxCell>
        <mxCell id="pPHQagGGR3IevSegPXLk-36" value="" style="endArrow=none;html=1;rounded=0;fontSize=12;curved=1;startSize=8;endSize=8;entryX=1;entryY=1;entryDx=0;entryDy=0;exitX=0.026;exitY=0.345;exitDx=0;exitDy=0;exitPerimeter=0;" parent="1" source="pPHQagGGR3IevSegPXLk-27" target="pPHQagGGR3IevSegPXLk-20" edge="1">
          <mxGeometry width="50" height="50" relative="1" as="geometry">
            <mxPoint x="740" y="750" as="sourcePoint" />
            <mxPoint x="790" y="700" as="targetPoint" />
          </mxGeometry>
        </mxCell>
        <mxCell id="iu2bACCIF6i8hBkBAPVo-2" value="" style="html=1;verticalAlign=bottom;endArrow=open;dashed=1;endSize=8;rounded=0;fontColor=#000000;entryX=0.5;entryY=0;entryDx=0;entryDy=0;exitX=0;exitY=0.5;exitDx=0;exitDy=0;" parent="1" source="pPHQagGGR3IevSegPXLk-7" target="pPHQagGGR3IevSegPXLk-2" edge="1">
          <mxGeometry x="0.0657" y="-54" relative="1" as="geometry">
            <mxPoint x="310" y="200" as="sourcePoint" />
            <mxPoint x="478" y="240" as="targetPoint" />
            <mxPoint as="offset" />
            <Array as="points">
              <mxPoint x="400" y="220" />
            </Array>
          </mxGeometry>
        </mxCell>
        <mxCell id="iu2bACCIF6i8hBkBAPVo-3" value="&lt;font style=&quot;font-size: 17px;&quot;&gt;&amp;lt;&amp;lt;include&amp;gt;&amp;gt;&lt;/font&gt;" style="text;html=1;strokeColor=none;fillColor=none;align=center;verticalAlign=middle;whiteSpace=wrap;rounded=0;fontSize=17;rotation=0;fontStyle=1" parent="1" vertex="1">
          <mxGeometry x="482.7" y="198" width="45.3" height="22.65" as="geometry" />
        </mxCell>
        <mxCell id="iu2bACCIF6i8hBkBAPVo-4" value="" style="html=1;verticalAlign=bottom;endArrow=open;dashed=1;endSize=8;rounded=0;fontColor=#000000;entryX=0.989;entryY=0.441;entryDx=0;entryDy=0;exitX=0;exitY=0.5;exitDx=0;exitDy=0;entryPerimeter=0;" parent="1" source="pPHQagGGR3IevSegPXLk-18" target="pPHQagGGR3IevSegPXLk-2" edge="1">
          <mxGeometry x="0.0657" y="-54" relative="1" as="geometry">
            <mxPoint x="610" y="230" as="sourcePoint" />
            <mxPoint x="410" y="370" as="targetPoint" />
            <mxPoint as="offset" />
            <Array as="points" />
          </mxGeometry>
        </mxCell>
        <mxCell id="iu2bACCIF6i8hBkBAPVo-5" value="&lt;font style=&quot;font-size: 17px;&quot;&gt;&amp;lt;&amp;lt;include&amp;gt;&amp;gt;&lt;/font&gt;" style="text;html=1;strokeColor=none;fillColor=none;align=center;verticalAlign=middle;whiteSpace=wrap;rounded=0;fontSize=17;rotation=-30;fontStyle=1" parent="1" vertex="1">
          <mxGeometry x="501.7" y="332.35" width="45.3" height="22.65" as="geometry" />
        </mxCell>
        <mxCell id="iu2bACCIF6i8hBkBAPVo-6" value="" style="html=1;verticalAlign=bottom;endArrow=open;dashed=1;endSize=8;rounded=0;fontColor=#000000;entryX=0.985;entryY=0.593;entryDx=0;entryDy=0;exitX=0;exitY=0.5;exitDx=0;exitDy=0;entryPerimeter=0;" parent="1" source="pPHQagGGR3IevSegPXLk-15" target="pPHQagGGR3IevSegPXLk-2" edge="1">
          <mxGeometry x="0.0657" y="-54" relative="1" as="geometry">
            <mxPoint x="610" y="320" as="sourcePoint" />
            <mxPoint x="469" y="405" as="targetPoint" />
            <mxPoint as="offset" />
            <Array as="points" />
          </mxGeometry>
        </mxCell>
        <mxCell id="iu2bACCIF6i8hBkBAPVo-7" value="&lt;font style=&quot;font-size: 17px;&quot;&gt;&amp;lt;&amp;lt;include&amp;gt;&amp;gt;&lt;/font&gt;" style="text;html=1;strokeColor=none;fillColor=none;align=center;verticalAlign=middle;whiteSpace=wrap;rounded=0;fontSize=17;rotation=0;fontStyle=1" parent="1" vertex="1">
          <mxGeometry x="511.7" y="388.68" width="45.3" height="22.65" as="geometry" />
        </mxCell>
        <mxCell id="iu2bACCIF6i8hBkBAPVo-8" value="" style="html=1;verticalAlign=bottom;endArrow=open;dashed=1;endSize=8;rounded=0;fontColor=#000000;entryX=1;entryY=1;entryDx=0;entryDy=0;exitX=0;exitY=0.5;exitDx=0;exitDy=0;" parent="1" source="pPHQagGGR3IevSegPXLk-19" target="pPHQagGGR3IevSegPXLk-2" edge="1">
          <mxGeometry x="0.0657" y="-54" relative="1" as="geometry">
            <mxPoint x="557" y="511.5" as="sourcePoint" />
            <mxPoint x="415" y="508.5" as="targetPoint" />
            <mxPoint as="offset" />
            <Array as="points" />
          </mxGeometry>
        </mxCell>
        <mxCell id="iu2bACCIF6i8hBkBAPVo-9" value="&lt;font style=&quot;font-size: 17px;&quot;&gt;&amp;lt;&amp;lt;include&amp;gt;&amp;gt;&lt;/font&gt;" style="text;html=1;strokeColor=none;fillColor=none;align=center;verticalAlign=middle;whiteSpace=wrap;rounded=0;fontSize=17;rotation=30;fontStyle=1" parent="1" vertex="1">
          <mxGeometry x="521" y="457.35" width="45.3" height="22.65" as="geometry" />
        </mxCell>
        <mxCell id="iu2bACCIF6i8hBkBAPVo-10" value="" style="html=1;verticalAlign=bottom;endArrow=open;dashed=1;endSize=8;rounded=0;fontColor=#000000;entryX=0.5;entryY=1;entryDx=0;entryDy=0;exitX=-0.021;exitY=0.431;exitDx=0;exitDy=0;exitPerimeter=0;" parent="1" source="pPHQagGGR3IevSegPXLk-20" target="pPHQagGGR3IevSegPXLk-2" edge="1">
          <mxGeometry x="0.0657" y="-54" relative="1" as="geometry">
            <mxPoint x="547" y="512" as="sourcePoint" />
            <mxPoint x="347" y="652" as="targetPoint" />
            <mxPoint as="offset" />
            <Array as="points">
              <mxPoint x="400" y="614" />
            </Array>
          </mxGeometry>
        </mxCell>
        <mxCell id="iu2bACCIF6i8hBkBAPVo-11" value="&lt;font style=&quot;font-size: 17px;&quot;&gt;&amp;lt;&amp;lt;include&amp;gt;&amp;gt;&lt;/font&gt;" style="text;html=1;strokeColor=none;fillColor=none;align=center;verticalAlign=middle;whiteSpace=wrap;rounded=0;fontSize=17;rotation=1;fontStyle=1" parent="1" vertex="1">
          <mxGeometry x="482.7" y="590" width="45.3" height="22.65" as="geometry" />
        </mxCell>
        <mxCell id="iu2bACCIF6i8hBkBAPVo-13" value="" style="endArrow=none;html=1;rounded=0;fontSize=12;startSize=8;endSize=8;entryX=0;entryY=0.3333333333333333;entryDx=0;entryDy=0;entryPerimeter=0;exitX=1;exitY=1;exitDx=0;exitDy=0;" parent="1" source="pPHQagGGR3IevSegPXLk-7" target="pPHQagGGR3IevSegPXLk-1" edge="1">
          <mxGeometry width="50" height="50" relative="1" as="geometry">
            <mxPoint x="720" y="460" as="sourcePoint" />
            <mxPoint x="770" y="410" as="targetPoint" />
          </mxGeometry>
        </mxCell>
        <mxCell id="iu2bACCIF6i8hBkBAPVo-14" value="" style="endArrow=none;html=1;rounded=0;fontSize=12;startSize=8;endSize=8;entryX=0;entryY=0.3333333333333333;entryDx=0;entryDy=0;entryPerimeter=0;exitX=1.006;exitY=0.566;exitDx=0;exitDy=0;exitPerimeter=0;" parent="1" source="pPHQagGGR3IevSegPXLk-18" target="pPHQagGGR3IevSegPXLk-1" edge="1">
          <mxGeometry width="50" height="50" relative="1" as="geometry">
            <mxPoint x="712" y="258" as="sourcePoint" />
            <mxPoint x="1060" y="477" as="targetPoint" />
          </mxGeometry>
        </mxCell>
        <mxCell id="iu2bACCIF6i8hBkBAPVo-15" value="" style="endArrow=none;html=1;rounded=0;fontSize=12;startSize=8;endSize=8;entryX=0;entryY=0.3333333333333333;entryDx=0;entryDy=0;entryPerimeter=0;exitX=1;exitY=0.5;exitDx=0;exitDy=0;" parent="1" source="pPHQagGGR3IevSegPXLk-15" target="pPHQagGGR3IevSegPXLk-1" edge="1">
          <mxGeometry width="50" height="50" relative="1" as="geometry">
            <mxPoint x="780" y="380" as="sourcePoint" />
            <mxPoint x="830" y="330" as="targetPoint" />
          </mxGeometry>
        </mxCell>
        <mxCell id="iu2bACCIF6i8hBkBAPVo-16" value="" style="endArrow=none;html=1;rounded=0;fontSize=12;startSize=8;endSize=8;entryX=0;entryY=0.3333333333333333;entryDx=0;entryDy=0;entryPerimeter=0;exitX=1;exitY=0.5;exitDx=0;exitDy=0;" parent="1" source="pPHQagGGR3IevSegPXLk-19" target="pPHQagGGR3IevSegPXLk-1" edge="1">
          <mxGeometry width="50" height="50" relative="1" as="geometry">
            <mxPoint x="780" y="380" as="sourcePoint" />
            <mxPoint x="830" y="330" as="targetPoint" />
          </mxGeometry>
        </mxCell>
        <mxCell id="iu2bACCIF6i8hBkBAPVo-18" value="" style="endArrow=none;html=1;rounded=0;fontSize=12;startSize=8;endSize=8;entryX=0;entryY=0.3333333333333333;entryDx=0;entryDy=0;entryPerimeter=0;exitX=1;exitY=0.5;exitDx=0;exitDy=0;" parent="1" source="pPHQagGGR3IevSegPXLk-20" target="pPHQagGGR3IevSegPXLk-1" edge="1">
          <mxGeometry width="50" height="50" relative="1" as="geometry">
            <mxPoint x="780" y="520" as="sourcePoint" />
            <mxPoint x="830" y="470" as="targetPoint" />
          </mxGeometry>
        </mxCell>
        <mxCell id="iu2bACCIF6i8hBkBAPVo-21" value="&lt;h1 style=&quot;line-height: 0%;&quot;&gt;&lt;span style=&quot;background-color: rgb(255, 255, 255);&quot;&gt;Use Case For Admin Side&lt;/span&gt;&lt;/h1&gt;" style="rounded=0;whiteSpace=wrap;html=1;labelBackgroundColor=#66FF66;strokeColor=#666666;fillColor=none;gradientColor=#b3b3b3;" parent="1" vertex="1">
          <mxGeometry x="184" y="30" width="797" height="60" as="geometry" />
        </mxCell>
        <mxCell id="iu2bACCIF6i8hBkBAPVo-23" value="&lt;font style=&quot;font-size: 18px;&quot;&gt;&lt;b&gt;Admin&lt;/b&gt;&lt;/font&gt;" style="shape=umlActor;verticalLabelPosition=bottom;verticalAlign=top;html=1;outlineConnect=0;" parent="1" vertex="1">
          <mxGeometry x="90" y="1220" width="40" height="80" as="geometry" />
        </mxCell>
        <mxCell id="iu2bACCIF6i8hBkBAPVo-24" value="&lt;b&gt;&lt;font style=&quot;font-size: 18px;&quot;&gt;Login&lt;/font&gt;&lt;/b&gt;" style="ellipse;whiteSpace=wrap;html=1;" parent="1" vertex="1">
          <mxGeometry x="637" y="1440" width="120" height="80" as="geometry" />
        </mxCell>
        <mxCell id="iu2bACCIF6i8hBkBAPVo-25" value="Username" style="ellipse;whiteSpace=wrap;html=1;fontStyle=1" parent="1" vertex="1">
          <mxGeometry x="561" y="1553.68" width="90" height="60" as="geometry" />
        </mxCell>
        <mxCell id="iu2bACCIF6i8hBkBAPVo-26" value="Password" style="ellipse;whiteSpace=wrap;html=1;fontStyle=1" parent="1" vertex="1">
          <mxGeometry x="730" y="1553.6800000000003" width="90" height="60" as="geometry" />
        </mxCell>
        <mxCell id="iu2bACCIF6i8hBkBAPVo-27" value="" style="endArrow=none;html=1;rounded=0;entryX=0.5;entryY=1;entryDx=0;entryDy=0;exitX=1;exitY=0;exitDx=0;exitDy=0;" parent="1" source="iu2bACCIF6i8hBkBAPVo-25" target="iu2bACCIF6i8hBkBAPVo-24" edge="1">
          <mxGeometry width="50" height="50" relative="1" as="geometry">
            <mxPoint x="437" y="1510" as="sourcePoint" />
            <mxPoint x="487" y="1460" as="targetPoint" />
          </mxGeometry>
        </mxCell>
        <mxCell id="iu2bACCIF6i8hBkBAPVo-28" value="" style="endArrow=none;html=1;rounded=0;entryX=0.5;entryY=1;entryDx=0;entryDy=0;exitX=0.5;exitY=0;exitDx=0;exitDy=0;" parent="1" source="iu2bACCIF6i8hBkBAPVo-26" target="iu2bACCIF6i8hBkBAPVo-24" edge="1">
          <mxGeometry width="50" height="50" relative="1" as="geometry">
            <mxPoint x="412" y="1510" as="sourcePoint" />
            <mxPoint x="467" y="1500" as="targetPoint" />
          </mxGeometry>
        </mxCell>
        <mxCell id="iu2bACCIF6i8hBkBAPVo-29" value="&lt;b&gt;&lt;font style=&quot;font-size: 18px;&quot;&gt;Search&lt;/font&gt;&lt;/b&gt;" style="ellipse;whiteSpace=wrap;html=1;" parent="1" vertex="1">
          <mxGeometry x="636" y="1138" width="120" height="80" as="geometry" />
        </mxCell>
        <mxCell id="iu2bACCIF6i8hBkBAPVo-30" value="" style="endArrow=open;endSize=12;dashed=1;html=1;rounded=0;fontSize=12;curved=1;entryX=0.5;entryY=0;entryDx=0;entryDy=0;exitX=1;exitY=0.5;exitDx=0;exitDy=0;" parent="1" source="iu2bACCIF6i8hBkBAPVo-31" target="iu2bACCIF6i8hBkBAPVo-29" edge="1">
          <mxGeometry x="-0.5268" y="50" width="160" relative="1" as="geometry">
            <mxPoint x="482.02000000000004" y="1009.28" as="sourcePoint" />
            <mxPoint x="367.9800000000001" y="1040" as="targetPoint" />
            <mxPoint as="offset" />
          </mxGeometry>
        </mxCell>
        <mxCell id="iu2bACCIF6i8hBkBAPVo-31" value="Email" style="ellipse;whiteSpace=wrap;html=1;fontStyle=1" parent="1" vertex="1">
          <mxGeometry x="500.02000000000004" y="1051.28" width="90" height="60" as="geometry" />
        </mxCell>
        <mxCell id="iu2bACCIF6i8hBkBAPVo-32" value="" style="endArrow=open;endSize=12;dashed=1;html=1;rounded=0;fontSize=12;curved=1;exitX=0;exitY=0.5;exitDx=0;exitDy=0;entryX=0.5;entryY=0;entryDx=0;entryDy=0;" parent="1" source="iu2bACCIF6i8hBkBAPVo-33" target="iu2bACCIF6i8hBkBAPVo-29" edge="1">
          <mxGeometry x="-0.0394" y="-17" width="160" relative="1" as="geometry">
            <mxPoint x="561.47" y="898" as="sourcePoint" />
            <mxPoint x="467.00170371048944" y="986.6450584781928" as="targetPoint" />
            <mxPoint as="offset" />
          </mxGeometry>
        </mxCell>
        <mxCell id="iu2bACCIF6i8hBkBAPVo-33" value="phone_no" style="ellipse;whiteSpace=wrap;html=1;fontStyle=1" parent="1" vertex="1">
          <mxGeometry x="766" y="1051.28" width="90" height="60" as="geometry" />
        </mxCell>
        <mxCell id="iu2bACCIF6i8hBkBAPVo-34" value="&lt;font style=&quot;font-size: 17px;&quot;&gt;&amp;lt;&amp;lt;extend&amp;gt;&amp;gt;&lt;/font&gt;" style="text;html=1;strokeColor=none;fillColor=none;align=center;verticalAlign=middle;whiteSpace=wrap;rounded=0;fontSize=17;rotation=-45;fontStyle=1" parent="1" vertex="1">
          <mxGeometry x="702.4000000000001" y="1080" width="45.3" height="22.65" as="geometry" />
        </mxCell>
        <mxCell id="iu2bACCIF6i8hBkBAPVo-35" value="&lt;font style=&quot;font-size: 17px;&quot;&gt;&amp;lt;&amp;lt;extend&amp;gt;&amp;gt;&lt;/font&gt;" style="text;html=1;strokeColor=none;fillColor=none;align=center;verticalAlign=middle;whiteSpace=wrap;rounded=0;fontSize=17;rotation=25;fontStyle=1" parent="1" vertex="1">
          <mxGeometry x="605.0000000000001" y="1108.28" width="45.3" height="22.65" as="geometry" />
        </mxCell>
        <mxCell id="iu2bACCIF6i8hBkBAPVo-36" value="&lt;span style=&quot;font-size: 18px;&quot;&gt;&lt;b&gt;Delete&lt;br&gt;Client&lt;br&gt;&lt;/b&gt;&lt;/span&gt;" style="ellipse;whiteSpace=wrap;html=1;" parent="1" vertex="1">
          <mxGeometry x="636" y="1328" width="120" height="80" as="geometry" />
        </mxCell>
        <mxCell id="iu2bACCIF6i8hBkBAPVo-37" value="&lt;span style=&quot;font-size: 18px;&quot;&gt;&lt;b&gt;Show&lt;br&gt;Clients&lt;br&gt;&lt;/b&gt;&lt;/span&gt;" style="ellipse;whiteSpace=wrap;html=1;" parent="1" vertex="1">
          <mxGeometry x="636" y="1228" width="120" height="80" as="geometry" />
        </mxCell>
        <mxCell id="iu2bACCIF6i8hBkBAPVo-38" value="&lt;span style=&quot;font-size: 18px;&quot;&gt;&lt;b&gt;Update&lt;br&gt;Client&lt;br&gt;&lt;/b&gt;&lt;/span&gt;" style="ellipse;whiteSpace=wrap;html=1;" parent="1" vertex="1">
          <mxGeometry x="636" y="1624" width="120" height="80" as="geometry" />
        </mxCell>
        <mxCell id="iu2bACCIF6i8hBkBAPVo-39" value="&lt;span style=&quot;font-size: 18px;&quot;&gt;&lt;b&gt;Add&lt;br&gt;Client&lt;br&gt;&lt;/b&gt;&lt;/span&gt;" style="ellipse;whiteSpace=wrap;html=1;" parent="1" vertex="1">
          <mxGeometry x="636" y="1734" width="120" height="80" as="geometry" />
        </mxCell>
        <mxCell id="iu2bACCIF6i8hBkBAPVo-40" value="Clientname" style="ellipse;whiteSpace=wrap;html=1;fontStyle=1" parent="1" vertex="1">
          <mxGeometry x="413" y="1806" width="90" height="60" as="geometry" />
        </mxCell>
        <mxCell id="iu2bACCIF6i8hBkBAPVo-41" value="salonname" style="ellipse;whiteSpace=wrap;html=1;fontStyle=1" parent="1" vertex="1">
          <mxGeometry x="470" y="1862" width="90" height="60" as="geometry" />
        </mxCell>
        <mxCell id="iu2bACCIF6i8hBkBAPVo-42" value="Email-id" style="ellipse;whiteSpace=wrap;html=1;fontStyle=1" parent="1" vertex="1">
          <mxGeometry x="557" y="1895" width="90" height="60" as="geometry" />
        </mxCell>
        <mxCell id="iu2bACCIF6i8hBkBAPVo-43" value="Phone_no" style="ellipse;whiteSpace=wrap;html=1;fontStyle=1" parent="1" vertex="1">
          <mxGeometry x="652.13" y="1895" width="90" height="60" as="geometry" />
        </mxCell>
        <mxCell id="iu2bACCIF6i8hBkBAPVo-44" value="Gst_no" style="ellipse;whiteSpace=wrap;html=1;fontStyle=1" parent="1" vertex="1">
          <mxGeometry x="739" y="1869" width="90" height="60" as="geometry" />
        </mxCell>
        <mxCell id="iu2bACCIF6i8hBkBAPVo-45" value="Password" style="ellipse;whiteSpace=wrap;html=1;fontStyle=1" parent="1" vertex="1">
          <mxGeometry x="819" y="1833" width="90" height="60" as="geometry" />
        </mxCell>
        <mxCell id="iu2bACCIF6i8hBkBAPVo-46" value="Address" style="ellipse;whiteSpace=wrap;html=1;fontStyle=1" parent="1" vertex="1">
          <mxGeometry x="892" y="1790" width="90" height="60" as="geometry" />
        </mxCell>
        <mxCell id="iu2bACCIF6i8hBkBAPVo-47" value="" style="endArrow=none;html=1;rounded=0;fontSize=12;curved=1;startSize=8;endSize=8;entryX=0;entryY=0.5;entryDx=0;entryDy=0;exitX=0.993;exitY=0.444;exitDx=0;exitDy=0;exitPerimeter=0;" parent="1" source="iu2bACCIF6i8hBkBAPVo-40" target="iu2bACCIF6i8hBkBAPVo-39" edge="1">
          <mxGeometry width="50" height="50" relative="1" as="geometry">
            <mxPoint x="526" y="1482" as="sourcePoint" />
            <mxPoint x="616" y="1412" as="targetPoint" />
          </mxGeometry>
        </mxCell>
        <mxCell id="iu2bACCIF6i8hBkBAPVo-48" value="" style="endArrow=none;html=1;rounded=0;fontSize=12;curved=1;startSize=8;endSize=8;entryX=0.042;entryY=0.705;entryDx=0;entryDy=0;entryPerimeter=0;exitX=0.5;exitY=0;exitDx=0;exitDy=0;" parent="1" source="iu2bACCIF6i8hBkBAPVo-41" target="iu2bACCIF6i8hBkBAPVo-39" edge="1">
          <mxGeometry width="50" height="50" relative="1" as="geometry">
            <mxPoint x="496" y="1844" as="sourcePoint" />
            <mxPoint x="546" y="1794" as="targetPoint" />
          </mxGeometry>
        </mxCell>
        <mxCell id="iu2bACCIF6i8hBkBAPVo-49" value="" style="endArrow=none;html=1;rounded=0;fontSize=12;curved=1;startSize=8;endSize=8;entryX=0.154;entryY=0.866;entryDx=0;entryDy=0;entryPerimeter=0;exitX=0.5;exitY=0;exitDx=0;exitDy=0;" parent="1" source="iu2bACCIF6i8hBkBAPVo-42" target="iu2bACCIF6i8hBkBAPVo-39" edge="1">
          <mxGeometry width="50" height="50" relative="1" as="geometry">
            <mxPoint x="525" y="1872" as="sourcePoint" />
            <mxPoint x="651" y="1800" as="targetPoint" />
          </mxGeometry>
        </mxCell>
        <mxCell id="iu2bACCIF6i8hBkBAPVo-50" value="" style="endArrow=none;html=1;rounded=0;fontSize=12;curved=1;startSize=8;endSize=8;entryX=0.348;entryY=0.975;entryDx=0;entryDy=0;entryPerimeter=0;exitX=0.5;exitY=0;exitDx=0;exitDy=0;" parent="1" source="iu2bACCIF6i8hBkBAPVo-43" target="iu2bACCIF6i8hBkBAPVo-39" edge="1">
          <mxGeometry width="50" height="50" relative="1" as="geometry">
            <mxPoint x="546" y="1864" as="sourcePoint" />
            <mxPoint x="596" y="1814" as="targetPoint" />
          </mxGeometry>
        </mxCell>
        <mxCell id="iu2bACCIF6i8hBkBAPVo-51" value="" style="endArrow=none;html=1;rounded=0;fontSize=12;curved=1;startSize=8;endSize=8;entryX=0.5;entryY=1;entryDx=0;entryDy=0;exitX=0;exitY=0;exitDx=0;exitDy=0;" parent="1" source="iu2bACCIF6i8hBkBAPVo-44" target="iu2bACCIF6i8hBkBAPVo-39" edge="1">
          <mxGeometry width="50" height="50" relative="1" as="geometry">
            <mxPoint x="707" y="1905" as="sourcePoint" />
            <mxPoint x="688" y="1822" as="targetPoint" />
          </mxGeometry>
        </mxCell>
        <mxCell id="iu2bACCIF6i8hBkBAPVo-52" value="" style="endArrow=none;html=1;rounded=0;fontSize=12;curved=1;startSize=8;endSize=8;exitX=0.636;exitY=0.979;exitDx=0;exitDy=0;exitPerimeter=0;entryX=0.33;entryY=0.031;entryDx=0;entryDy=0;entryPerimeter=0;" parent="1" source="iu2bACCIF6i8hBkBAPVo-39" target="iu2bACCIF6i8hBkBAPVo-45" edge="1">
          <mxGeometry width="50" height="50" relative="1" as="geometry">
            <mxPoint x="714" y="1814" as="sourcePoint" />
            <mxPoint x="856" y="1804" as="targetPoint" />
          </mxGeometry>
        </mxCell>
        <mxCell id="iu2bACCIF6i8hBkBAPVo-53" value="" style="endArrow=none;html=1;rounded=0;fontSize=12;curved=1;startSize=8;endSize=8;entryX=1;entryY=1;entryDx=0;entryDy=0;exitX=0.026;exitY=0.345;exitDx=0;exitDy=0;exitPerimeter=0;" parent="1" source="iu2bACCIF6i8hBkBAPVo-46" target="iu2bACCIF6i8hBkBAPVo-39" edge="1">
          <mxGeometry width="50" height="50" relative="1" as="geometry">
            <mxPoint x="776" y="1904" as="sourcePoint" />
            <mxPoint x="826" y="1854" as="targetPoint" />
          </mxGeometry>
        </mxCell>
        <mxCell id="iu2bACCIF6i8hBkBAPVo-69" value="&lt;h1 style=&quot;line-height: 0%;&quot;&gt;&lt;span style=&quot;background-color: rgb(255, 255, 255);&quot;&gt;Use Case For Admin Side&lt;/span&gt;&lt;/h1&gt;" style="rounded=0;whiteSpace=wrap;html=1;labelBackgroundColor=#66FF66;strokeColor=#666666;fillColor=none;gradientColor=#b3b3b3;" parent="1" vertex="1">
          <mxGeometry x="229.14999999999998" y="970" width="797" height="60" as="geometry" />
        </mxCell>
        <mxCell id="iu2bACCIF6i8hBkBAPVo-72" value="" style="endArrow=none;html=1;rounded=0;fontSize=12;startSize=8;endSize=8;exitX=1;exitY=0.3333333333333333;exitDx=0;exitDy=0;exitPerimeter=0;entryX=0;entryY=0.5;entryDx=0;entryDy=0;" parent="1" source="iu2bACCIF6i8hBkBAPVo-23" target="iu2bACCIF6i8hBkBAPVo-24" edge="1">
          <mxGeometry width="50" height="50" relative="1" as="geometry">
            <mxPoint x="680" y="1450" as="sourcePoint" />
            <mxPoint x="350" y="1250" as="targetPoint" />
          </mxGeometry>
        </mxCell>
        <mxCell id="iu2bACCIF6i8hBkBAPVo-75" value="" style="endArrow=none;html=1;rounded=0;fontSize=12;startSize=8;endSize=8;exitX=1;exitY=0.3333333333333333;exitDx=0;exitDy=0;exitPerimeter=0;entryX=0;entryY=0.5;entryDx=0;entryDy=0;" parent="1" source="iu2bACCIF6i8hBkBAPVo-23" target="iu2bACCIF6i8hBkBAPVo-38" edge="1">
          <mxGeometry width="50" height="50" relative="1" as="geometry">
            <mxPoint x="140" y="1257" as="sourcePoint" />
            <mxPoint x="647" y="1490" as="targetPoint" />
          </mxGeometry>
        </mxCell>
        <mxCell id="iu2bACCIF6i8hBkBAPVo-76" value="" style="endArrow=none;html=1;rounded=0;fontSize=12;startSize=8;endSize=8;exitX=1;exitY=0.3333333333333333;exitDx=0;exitDy=0;exitPerimeter=0;entryX=0;entryY=0.5;entryDx=0;entryDy=0;" parent="1" source="iu2bACCIF6i8hBkBAPVo-23" target="iu2bACCIF6i8hBkBAPVo-39" edge="1">
          <mxGeometry width="50" height="50" relative="1" as="geometry">
            <mxPoint x="140" y="1257" as="sourcePoint" />
            <mxPoint x="647" y="1490" as="targetPoint" />
          </mxGeometry>
        </mxCell>
        <mxCell id="iu2bACCIF6i8hBkBAPVo-77" value="" style="endArrow=none;html=1;rounded=0;fontSize=12;startSize=8;endSize=8;exitX=1;exitY=0.3333333333333333;exitDx=0;exitDy=0;exitPerimeter=0;entryX=0;entryY=0.5;entryDx=0;entryDy=0;" parent="1" source="iu2bACCIF6i8hBkBAPVo-23" target="iu2bACCIF6i8hBkBAPVo-36" edge="1">
          <mxGeometry width="50" height="50" relative="1" as="geometry">
            <mxPoint x="140" y="1257" as="sourcePoint" />
            <mxPoint x="647" y="1490" as="targetPoint" />
          </mxGeometry>
        </mxCell>
        <mxCell id="iu2bACCIF6i8hBkBAPVo-78" value="" style="endArrow=none;html=1;rounded=0;fontSize=12;startSize=8;endSize=8;exitX=1;exitY=0.3333333333333333;exitDx=0;exitDy=0;exitPerimeter=0;entryX=0;entryY=0.5;entryDx=0;entryDy=0;" parent="1" source="iu2bACCIF6i8hBkBAPVo-23" target="iu2bACCIF6i8hBkBAPVo-37" edge="1">
          <mxGeometry width="50" height="50" relative="1" as="geometry">
            <mxPoint x="140" y="1257" as="sourcePoint" />
            <mxPoint x="646" y="1378" as="targetPoint" />
          </mxGeometry>
        </mxCell>
        <mxCell id="iu2bACCIF6i8hBkBAPVo-79" value="" style="endArrow=none;html=1;rounded=0;fontSize=12;startSize=8;endSize=8;exitX=1;exitY=0.3333333333333333;exitDx=0;exitDy=0;exitPerimeter=0;entryX=0;entryY=0.5;entryDx=0;entryDy=0;" parent="1" source="iu2bACCIF6i8hBkBAPVo-23" target="iu2bACCIF6i8hBkBAPVo-29" edge="1">
          <mxGeometry width="50" height="50" relative="1" as="geometry">
            <mxPoint x="140" y="1257" as="sourcePoint" />
            <mxPoint x="646" y="1278" as="targetPoint" />
          </mxGeometry>
        </mxCell>
        <mxCell id="iu2bACCIF6i8hBkBAPVo-80" value="" style="html=1;verticalAlign=bottom;endArrow=open;dashed=1;endSize=8;rounded=0;fontColor=#000000;entryX=1;entryY=0.5;entryDx=0;entryDy=0;exitX=1;exitY=0.5;exitDx=0;exitDy=0;" parent="1" source="iu2bACCIF6i8hBkBAPVo-39" target="iu2bACCIF6i8hBkBAPVo-24" edge="1">
          <mxGeometry x="0.0657" y="-54" relative="1" as="geometry">
            <mxPoint x="971.7" y="1764" as="sourcePoint" />
            <mxPoint x="774.7" y="1590" as="targetPoint" />
            <mxPoint as="offset" />
            <Array as="points">
              <mxPoint x="940" y="1774" />
              <mxPoint x="940" y="1480" />
            </Array>
          </mxGeometry>
        </mxCell>
        <mxCell id="iu2bACCIF6i8hBkBAPVo-81" value="" style="html=1;verticalAlign=bottom;endArrow=open;dashed=1;endSize=8;rounded=0;fontColor=#000000;exitX=1;exitY=0.5;exitDx=0;exitDy=0;entryX=0.992;entryY=0.652;entryDx=0;entryDy=0;entryPerimeter=0;" parent="1" source="iu2bACCIF6i8hBkBAPVo-38" target="iu2bACCIF6i8hBkBAPVo-24" edge="1">
          <mxGeometry x="0.0657" y="-54" relative="1" as="geometry">
            <mxPoint x="766" y="1784" as="sourcePoint" />
            <mxPoint x="756" y="1480" as="targetPoint" />
            <mxPoint as="offset" />
            <Array as="points">
              <mxPoint x="930" y="1664" />
              <mxPoint x="930" y="1492" />
            </Array>
          </mxGeometry>
        </mxCell>
        <mxCell id="iu2bACCIF6i8hBkBAPVo-82" value="" style="html=1;verticalAlign=bottom;endArrow=open;dashed=1;endSize=8;rounded=0;fontColor=#000000;exitX=1;exitY=0.5;exitDx=0;exitDy=0;entryX=0.992;entryY=0.38;entryDx=0;entryDy=0;entryPerimeter=0;" parent="1" source="iu2bACCIF6i8hBkBAPVo-29" target="iu2bACCIF6i8hBkBAPVo-24" edge="1">
          <mxGeometry x="0.0657" y="-54" relative="1" as="geometry">
            <mxPoint x="783" y="1440" as="sourcePoint" />
            <mxPoint x="780" y="1440" as="targetPoint" />
            <mxPoint as="offset" />
            <Array as="points">
              <mxPoint x="940" y="1178" />
              <mxPoint x="940" y="1470" />
            </Array>
          </mxGeometry>
        </mxCell>
        <mxCell id="iu2bACCIF6i8hBkBAPVo-83" value="" style="html=1;verticalAlign=bottom;endArrow=open;dashed=1;endSize=8;rounded=0;fontColor=#000000;exitX=1;exitY=0.5;exitDx=0;exitDy=0;entryX=0.942;entryY=0.25;entryDx=0;entryDy=0;entryPerimeter=0;" parent="1" source="iu2bACCIF6i8hBkBAPVo-37" target="iu2bACCIF6i8hBkBAPVo-24" edge="1">
          <mxGeometry x="0.0657" y="-54" relative="1" as="geometry">
            <mxPoint x="766" y="1188" as="sourcePoint" />
            <mxPoint x="766" y="1480" as="targetPoint" />
            <mxPoint as="offset" />
            <Array as="points">
              <mxPoint x="930" y="1268" />
              <mxPoint x="930" y="1460" />
            </Array>
          </mxGeometry>
        </mxCell>
        <mxCell id="iu2bACCIF6i8hBkBAPVo-84" value="" style="html=1;verticalAlign=bottom;endArrow=open;dashed=1;endSize=8;rounded=0;fontColor=#000000;exitX=1;exitY=0.5;exitDx=0;exitDy=0;entryX=1;entryY=0;entryDx=0;entryDy=0;" parent="1" source="iu2bACCIF6i8hBkBAPVo-36" target="iu2bACCIF6i8hBkBAPVo-24" edge="1">
          <mxGeometry x="0.0657" y="-54" relative="1" as="geometry">
            <mxPoint x="766" y="1278" as="sourcePoint" />
            <mxPoint x="760" y="1470" as="targetPoint" />
            <mxPoint as="offset" />
            <Array as="points">
              <mxPoint x="920" y="1368" />
              <mxPoint x="920" y="1450" />
            </Array>
          </mxGeometry>
        </mxCell>
        <mxCell id="iu2bACCIF6i8hBkBAPVo-85" value="&lt;font style=&quot;font-size: 17px;&quot;&gt;&amp;lt;&amp;lt;include&amp;gt;&amp;gt;&lt;/font&gt;" style="text;html=1;strokeColor=none;fillColor=none;align=center;verticalAlign=middle;whiteSpace=wrap;rounded=0;fontSize=17;rotation=0;fontStyle=1" parent="1" vertex="1">
          <mxGeometry x="820" y="1751" width="45.3" height="22.65" as="geometry" />
        </mxCell>
        <mxCell id="iu2bACCIF6i8hBkBAPVo-87" value="&lt;font style=&quot;font-size: 17px;&quot;&gt;&amp;lt;&amp;lt;include&amp;gt;&amp;gt;&lt;/font&gt;" style="text;html=1;strokeColor=none;fillColor=none;align=center;verticalAlign=middle;whiteSpace=wrap;rounded=0;fontSize=17;rotation=0;fontStyle=1" parent="1" vertex="1">
          <mxGeometry x="829" y="1641" width="45.3" height="22.65" as="geometry" />
        </mxCell>
        <mxCell id="iu2bACCIF6i8hBkBAPVo-88" value="&lt;font style=&quot;font-size: 17px;&quot;&gt;&amp;lt;&amp;lt;include&amp;gt;&amp;gt;&lt;/font&gt;" style="text;html=1;strokeColor=none;fillColor=none;align=center;verticalAlign=middle;whiteSpace=wrap;rounded=0;fontSize=17;rotation=0;fontStyle=1" parent="1" vertex="1">
          <mxGeometry x="820" y="1350" width="45.3" height="22.65" as="geometry" />
        </mxCell>
        <mxCell id="iu2bACCIF6i8hBkBAPVo-89" value="&lt;font style=&quot;font-size: 17px;&quot;&gt;&amp;lt;&amp;lt;include&amp;gt;&amp;gt;&lt;/font&gt;" style="text;html=1;strokeColor=none;fillColor=none;align=center;verticalAlign=middle;whiteSpace=wrap;rounded=0;fontSize=17;rotation=0;fontStyle=1" parent="1" vertex="1">
          <mxGeometry x="819" y="1248.68" width="45.3" height="22.65" as="geometry" />
        </mxCell>
        <mxCell id="iu2bACCIF6i8hBkBAPVo-90" value="&lt;font style=&quot;font-size: 17px;&quot;&gt;&amp;lt;&amp;lt;include&amp;gt;&amp;gt;&lt;/font&gt;" style="text;html=1;strokeColor=none;fillColor=none;align=center;verticalAlign=middle;whiteSpace=wrap;rounded=0;fontSize=17;rotation=0;fontStyle=1" parent="1" vertex="1">
          <mxGeometry x="820" y="1160" width="45.3" height="22.65" as="geometry" />
        </mxCell>
        <mxCell id="5HPlXhhZivKkGH9lupuU-1" value="&lt;font style=&quot;font-size: 17px;&quot;&gt;&amp;lt;&amp;lt;include&amp;gt;&amp;gt;&lt;/font&gt;" style="text;html=1;strokeColor=none;fillColor=none;align=center;verticalAlign=middle;whiteSpace=wrap;rounded=0;fontSize=17;rotation=0;fontStyle=1" vertex="1" parent="1">
          <mxGeometry x="819" y="1248.68" width="45.3" height="22.65" as="geometry" />
        </mxCell>
      </root>
    </mxGraphModel>
  </diagram>
</mxfile>
